<svg xmlns="http://www.w3.org/2000/svg" viewBox="0 0 496.33 112.14"><defs><style>.cls-1{fill:#3f3f3f;}</style></defs><g id="Layer_2" data-name="Layer 2"><g id="Branding_by_Patrick_Liddell" data-name="Branding by Patrick Liddell"><g id="Logo_Text_Black"><polygon class="cls-1" points="16.63 1.18 0 1.18 0 59.98 44.69 59.98 44.69 46.79 16.63 46.79 16.63 1.18"/><path class="cls-1" d="M104.3,4A35.23,35.23,0,0,0,87.54,0,35.17,35.17,0,0,0,70.78,4,29.42,29.42,0,0,0,54.86,30.58,29.42,29.42,0,0,0,70.78,57.21a35.17,35.17,0,0,0,16.76,3.95,35.23,35.23,0,0,0,16.76-3.95,29.47,29.47,0,0,0,15.92-26.63A29.47,29.47,0,0,0,104.3,4Zm-3,35.41a15.16,15.16,0,0,1-5.72,5.92,16.54,16.54,0,0,1-16.13,0,15.07,15.07,0,0,1-5.71-5.92,18,18,0,0,1-2.1-8.78,18,18,0,0,1,2.1-8.78,15.07,15.07,0,0,1,5.71-5.92,16.54,16.54,0,0,1,16.13,0,15.16,15.16,0,0,1,5.72,5.92,18.06,18.06,0,0,1,2.1,8.78A18.06,18.06,0,0,1,101.32,39.36Z"/><polygon class="cls-1" points="192.47 1.18 176.17 1.18 176.17 32.51 150.21 1.18 136.51 1.18 136.51 59.98 152.81 59.98 152.81 28.65 178.77 59.98 192.47 59.98 192.47 1.18"/><path class="cls-1" d="M242.37,13.78a18.66,18.66,0,0,1,14.28,6.55l10.58-9.58a28.51,28.51,0,0,0-10.92-8A37.59,37.59,0,0,0,241.53,0a35.86,35.86,0,0,0-16.89,3.91A29,29,0,0,0,213,14.79a30,30,0,0,0-4.2,15.79A30,30,0,0,0,213,46.37a29.11,29.11,0,0,0,11.6,10.88,35,35,0,0,0,16.63,3.91,46.45,46.45,0,0,0,13.11-1.93,38.42,38.42,0,0,0,11.59-5.55V29.32h-14.7V45.45a21.23,21.23,0,0,1-9,1.93,17.21,17.21,0,0,1-8.65-2.14,15,15,0,0,1-5.88-6,17.61,17.61,0,0,1-2.11-8.69q0-7.65,4.63-12.22T242.37,13.78Z"/><polygon class="cls-1" points="278.49 14.37 296.55 14.37 296.55 59.98 313.19 59.98 313.19 14.37 331.16 14.37 331.16 1.18 278.49 1.18 278.49 14.37"/><path class="cls-1" d="M377.29,1.18H360.9l-26,58.8h17l4.63-11.42H381.4L386,60h17.31ZM361.41,36.29,369,17.47l7.56,18.82Z"/><rect class="cls-1" x="415.59" y="1.18" width="16.63" height="58.81"/><polygon class="cls-1" points="468.27 46.79 468.27 1.18 451.63 1.18 451.63 59.98 496.33 59.98 496.33 46.79 468.27 46.79"/><polygon class="cls-1" points="4.56 82.74 0 82.74 0 111.75 23.36 111.75 23.36 107.78 4.56 107.78 4.56 82.74"/><path class="cls-1" d="M82.81,85.83a14.42,14.42,0,0,0-5.26-2.65,24.45,24.45,0,0,0-6.5-.84,24.11,24.11,0,0,0-6.44.84,14.61,14.61,0,0,0-5.25,2.65,12.38,12.38,0,0,0-3.53,4.65,16.38,16.38,0,0,0-1.27,6.72,16.55,16.55,0,0,0,1.25,6.72,12.52,12.52,0,0,0,3.48,4.67,14.5,14.5,0,0,0,5.26,2.7,25.43,25.43,0,0,0,13,0,14.63,14.63,0,0,0,5.27-2.7,12.52,12.52,0,0,0,3.48-4.67,16.73,16.73,0,0,0,1.24-6.72,16.38,16.38,0,0,0-1.26-6.72A12.54,12.54,0,0,0,82.81,85.83ZM71.05,108.18a17.27,17.27,0,0,1-4.92-.66,10,10,0,0,1-3.73-2,8.81,8.81,0,0,1-2.4-3.38,12.86,12.86,0,0,1-.87-5,12.66,12.66,0,0,1,.88-5,9.18,9.18,0,0,1,2.43-3.36,9.91,9.91,0,0,1,3.73-2,19.25,19.25,0,0,1,9.77,0,10.08,10.08,0,0,1,3.75,2,9,9,0,0,1,2.44,3.36,12.51,12.51,0,0,1,.89,5,12.86,12.86,0,0,1-.87,5,8.72,8.72,0,0,1-2.42,3.37,10,10,0,0,1-3.76,2A17.22,17.22,0,0,1,71.05,108.18Z"/><path class="cls-1" d="M137.7,98.79h10.77V105a13.87,13.87,0,0,1-4.66,2.49,19.69,19.69,0,0,1-5.56.74,17.33,17.33,0,0,1-4.95-.67,10.2,10.2,0,0,1-3.74-2,8.93,8.93,0,0,1-2.38-3.38,12.78,12.78,0,0,1-.85-4.92,13,13,0,0,1,.85-4.94,8.59,8.59,0,0,1,2.38-3.35,10.21,10.21,0,0,1,3.75-2,18,18,0,0,1,5-.65,20.13,20.13,0,0,1,3,.25,12,12,0,0,1,2.91.85A8.08,8.08,0,0,1,146.58,89,5.31,5.31,0,0,1,148,91.51l.15.56,4.48-1-.19-.61a9.72,9.72,0,0,0-2.24-4A11.61,11.61,0,0,0,146.69,84a16.35,16.35,0,0,0-4.14-1.28,26.39,26.39,0,0,0-4.3-.37,24,24,0,0,0-6.58.86,14.41,14.41,0,0,0-5.24,2.7A12.33,12.33,0,0,0,123,90.55a16.59,16.59,0,0,0-1.22,6.65,16.77,16.77,0,0,0,1.22,6.68,12.55,12.55,0,0,0,3.44,4.69,14.21,14.21,0,0,0,5.24,2.72,24.43,24.43,0,0,0,6.58.85c.92,0,1.88,0,2.86-.14a21.11,21.11,0,0,0,2.95-.49,16.81,16.81,0,0,0,2.83-1,11.25,11.25,0,0,0,1.58-.83v2H153V94.82H137.7Z"/><rect class="cls-1" x="190.2" y="82.74" width="4.56" height="29"/><path class="cls-1" d="M256.11,96.67a15.06,15.06,0,0,0-4-1.26c-1.45-.26-3-.45-4.5-.58s-3-.26-4.46-.36a25.54,25.54,0,0,1-3.78-.55,7.09,7.09,0,0,1-2.53-1,1.85,1.85,0,0,1-.79-1.65,3.53,3.53,0,0,1,.84-2.48,5.9,5.9,0,0,1,2.24-1.52,12.13,12.13,0,0,1,3-.73,25.64,25.64,0,0,1,3-.2,27.6,27.6,0,0,1,3,.18,11.34,11.34,0,0,1,3,.7,8.22,8.22,0,0,1,2.42,1.44A5.11,5.11,0,0,1,255,91l.16.53,4.22-1-.2-.6a9,9,0,0,0-2.3-3.8,11.39,11.39,0,0,0-3.41-2.28,15.3,15.3,0,0,0-4-1.14,30.35,30.35,0,0,0-4.24-.31,25.78,25.78,0,0,0-4.32.41,16.57,16.57,0,0,0-4.44,1.4,10.7,10.7,0,0,0-3.54,2.69,6.6,6.6,0,0,0-1.49,4.4,5.62,5.62,0,0,0,1.17,3.7,7.64,7.64,0,0,0,2.95,2.13,16.21,16.21,0,0,0,4,1.08c1.44.21,2.95.38,4.47.5s3,.25,4.42.39a21.33,21.33,0,0,1,3.74.7,6.29,6.29,0,0,1,2.5,1.3,2.71,2.71,0,0,1,.83,2.12,3.43,3.43,0,0,1-1,2.63,7.13,7.13,0,0,1-2.63,1.56,13.34,13.34,0,0,1-3.39.69c-1.22.09-2.3.14-3.21.14a29.73,29.73,0,0,1-3.41-.2,12.51,12.51,0,0,1-3.08-.74,7.34,7.34,0,0,1-2.41-1.51,5.52,5.52,0,0,1-1.46-2.5l-.17-.54-4.33,1.12.13.57a8.37,8.37,0,0,0,2.15,4,10.64,10.64,0,0,0,3.57,2.36,16.93,16.93,0,0,0,4.39,1.11,37.81,37.81,0,0,0,4.62.28c1.44,0,3-.08,4.7-.24a17.23,17.23,0,0,0,4.84-1.15,9.86,9.86,0,0,0,3.82-2.71,7.25,7.25,0,0,0,1.58-4.88,6.75,6.75,0,0,0-1.15-4A7.84,7.84,0,0,0,256.11,96.67Z"/><polygon class="cls-1" points="292.02 86.71 304.73 86.71 304.73 111.75 309.3 111.75 309.3 86.71 322.01 86.71 322.01 82.74 292.02 82.74 292.02 86.71"/><rect class="cls-1" x="357.39" y="82.74" width="4.56" height="29"/><path class="cls-1" d="M424.16,103.9a4.66,4.66,0,0,1-1.54,2.07,9.26,9.26,0,0,1-2.46,1.33,13.46,13.46,0,0,1-2.9.68,22.47,22.47,0,0,1-2.81.2,16.88,16.88,0,0,1-4.91-.69,10.56,10.56,0,0,1-3.76-2,9,9,0,0,1-2.42-3.38,12.44,12.44,0,0,1-.87-4.88,13,13,0,0,1,.85-5,8.53,8.53,0,0,1,2.38-3.33,10.14,10.14,0,0,1,3.75-2,18.18,18.18,0,0,1,8-.4,11.81,11.81,0,0,1,2.91.87,8,8,0,0,1,2.37,1.63,5.49,5.49,0,0,1,1.38,2.45l.14.56,4.47-1-.18-.6a9.54,9.54,0,0,0-2.22-4A11.55,11.55,0,0,0,422.87,84a15.93,15.93,0,0,0-4.15-1.28,26.51,26.51,0,0,0-4.31-.37,24.85,24.85,0,0,0-6.61.84,14,14,0,0,0-5.23,2.66,12.23,12.23,0,0,0-3.42,4.65,19.09,19.09,0,0,0,0,13.43,12.46,12.46,0,0,0,3.42,4.67,14.16,14.16,0,0,0,5.22,2.7,24.57,24.57,0,0,0,6.62.85,30,30,0,0,0,4.14-.3,18.36,18.36,0,0,0,4.15-1.09,12.19,12.19,0,0,0,3.59-2.19,8.56,8.56,0,0,0,2.4-3.69l.22-.67-4.58-.74Z"/><path class="cls-1" d="M488.07,96.67a15,15,0,0,0-4-1.26c-1.45-.26-3-.45-4.5-.58s-3-.26-4.46-.36a25.34,25.34,0,0,1-3.78-.55,7.23,7.23,0,0,1-2.54-1,1.87,1.87,0,0,1-.78-1.65,3.49,3.49,0,0,1,.84-2.48,5.9,5.9,0,0,1,2.24-1.52,12.06,12.06,0,0,1,3-.73,25.8,25.8,0,0,1,3-.2,27.6,27.6,0,0,1,3.05.18,11.26,11.26,0,0,1,2.95.7,8.14,8.14,0,0,1,2.43,1.44A5.09,5.09,0,0,1,487,91l.17.53,4.22-1-.2-.6a9.05,9.05,0,0,0-2.3-3.8,11.52,11.52,0,0,0-3.41-2.28,15.26,15.26,0,0,0-4.05-1.14,30.24,30.24,0,0,0-4.24-.31,25.67,25.67,0,0,0-4.31.41,16.75,16.75,0,0,0-4.45,1.4,10.76,10.76,0,0,0-3.53,2.69,6.6,6.6,0,0,0-1.49,4.4,5.62,5.62,0,0,0,1.17,3.7,7.57,7.57,0,0,0,2.95,2.13,16.13,16.13,0,0,0,4,1.08c1.45.21,2.95.38,4.48.5s3,.25,4.41.39a21.64,21.64,0,0,1,3.75.7,6.24,6.24,0,0,1,2.49,1.3,2.68,2.68,0,0,1,.84,2.12,3.4,3.4,0,0,1-1,2.63,7.09,7.09,0,0,1-2.62,1.56,13.34,13.34,0,0,1-3.39.69c-1.22.09-2.3.14-3.22.14a30,30,0,0,1-3.41-.2,12.43,12.43,0,0,1-3.07-.74,7.13,7.13,0,0,1-2.41-1.51,5.53,5.53,0,0,1-1.47-2.5l-.16-.54-4.34,1.12.14.57a8.36,8.36,0,0,0,2.14,4,10.79,10.79,0,0,0,3.58,2.36,16.85,16.85,0,0,0,4.38,1.11,37.93,37.93,0,0,0,4.62.28c1.44,0,3-.08,4.71-.24a17.23,17.23,0,0,0,4.84-1.15,9.86,9.86,0,0,0,3.82-2.71,7.3,7.3,0,0,0,1.57-4.88,6.75,6.75,0,0,0-1.14-4A7.87,7.87,0,0,0,488.07,96.67Z"/></g></g></g></svg>