<svg xmlns="http://www.w3.org/2000/svg" xmlns:xlink="http://www.w3.org/1999/xlink" viewBox="0 0 784.89 316.64"><defs><style>.cls-1{fill:#3f3f3f;}.cls-2{fill:url(#linear-gradient);}.cls-3{fill:url(#linear-gradient-2);}.cls-4{fill:url(#linear-gradient-3);}.cls-5{fill:url(#linear-gradient-4);}.cls-6{fill:url(#linear-gradient-5);}.cls-7{fill:url(#linear-gradient-6);}.cls-8{fill:url(#linear-gradient-7);}.cls-9{fill:url(#linear-gradient-8);}.cls-10{fill:url(#linear-gradient-9);}.cls-11{fill:url(#linear-gradient-10);}.cls-12{fill:url(#linear-gradient-11);}.cls-13{fill:url(#linear-gradient-12);}.cls-14{fill:url(#linear-gradient-13);}.cls-15{fill:url(#linear-gradient-14);}.cls-16{fill:#093148;opacity:0.1;}</style><linearGradient id="linear-gradient" x1="-211.04" y1="46.95" x2="286.89" y2="196.63" gradientUnits="userSpaceOnUse"><stop offset="0" stop-color="#006bb4"/><stop offset="1" stop-color="#00b7e7"/></linearGradient><linearGradient id="linear-gradient-2" x1="79.06" y1="247.11" x2="150.21" y2="247.11" xlink:href="#linear-gradient"/><linearGradient id="linear-gradient-3" x1="-205.39" y1="28.15" x2="292.54" y2="177.83" xlink:href="#linear-gradient"/><linearGradient id="linear-gradient-4" x1="-208.67" y1="39.07" x2="289.26" y2="188.74" xlink:href="#linear-gradient"/><linearGradient id="linear-gradient-5" x1="-200.18" y1="10.81" x2="297.76" y2="160.49" xlink:href="#linear-gradient"/><linearGradient id="linear-gradient-6" x1="-191.45" y1="-18.22" x2="306.48" y2="131.46" xlink:href="#linear-gradient"/><linearGradient id="linear-gradient-7" x1="-211.46" y1="48.34" x2="286.48" y2="198.01" xlink:href="#linear-gradient"/><linearGradient id="linear-gradient-8" x1="-214.12" y1="57.2" x2="283.81" y2="206.88" xlink:href="#linear-gradient"/><linearGradient id="linear-gradient-9" x1="221.62" y1="231.65" x2="110.02" y2="2.82" xlink:href="#linear-gradient"/><linearGradient id="linear-gradient-10" x1="215.72" y1="234.53" x2="104.11" y2="5.7" xlink:href="#linear-gradient"/><linearGradient id="linear-gradient-11" x1="234.92" y1="225.17" x2="123.31" y2="-3.67" xlink:href="#linear-gradient"/><linearGradient id="linear-gradient-12" x1="213.99" y1="235.38" x2="102.38" y2="6.54" xlink:href="#linear-gradient"/><linearGradient id="linear-gradient-13" x1="234.66" y1="225.3" x2="123.05" y2="-3.54" xlink:href="#linear-gradient"/><linearGradient id="linear-gradient-14" x1="229.13" y1="227.99" x2="117.52" y2="-0.84" xlink:href="#linear-gradient"/></defs><g id="Layer_2" data-name="Layer 2"><g id="Branding_by_Patrick_Liddell" data-name="Branding by Patrick Liddell"><g id="Logo_V1"><polygon class="cls-1" points="305.2 115.21 288.57 115.21 288.57 174.01 333.26 174.01 333.26 160.83 305.2 160.83 305.2 115.21"/><path class="cls-1" d="M392.86,118a37.53,37.53,0,0,0-33.52,0,30.07,30.07,0,0,0,0,53.26,37.53,37.53,0,0,0,33.52,0,30.06,30.06,0,0,0,0-53.26Zm-3,35.41a15.07,15.07,0,0,1-5.71,5.92,16.54,16.54,0,0,1-16.13,0,15.07,15.07,0,0,1-5.71-5.92,19.4,19.4,0,0,1,0-17.56,15.13,15.13,0,0,1,5.71-5.92,16.54,16.54,0,0,1,16.13,0,15.13,15.13,0,0,1,5.71,5.92,19.4,19.4,0,0,1,0,17.56Z"/><polygon class="cls-1" points="481.03 115.21 464.73 115.21 464.73 146.54 438.77 115.21 425.08 115.21 425.08 174.01 441.38 174.01 441.38 142.68 467.34 174.01 481.03 174.01 481.03 115.21"/><path class="cls-1" d="M530.93,127.81a18.63,18.63,0,0,1,14.28,6.55l10.59-9.57a28.43,28.43,0,0,0-10.92-8A37.79,37.79,0,0,0,530.09,114a35.82,35.82,0,0,0-16.88,3.91,28.94,28.94,0,0,0-11.68,10.88,31.8,31.8,0,0,0,0,31.59,29.06,29.06,0,0,0,11.59,10.87,35,35,0,0,0,16.64,3.91,46.08,46.08,0,0,0,13.1-1.93,38.36,38.36,0,0,0,11.6-5.55V143.35H539.75v16.13a21.2,21.2,0,0,1-9,1.93,17.23,17.23,0,0,1-8.65-2.14,15,15,0,0,1-5.88-6,17.78,17.78,0,0,1-2.1-8.7q0-7.63,4.62-12.22T530.93,127.81Z"/><polygon class="cls-1" points="567.06 128.4 585.12 128.4 585.12 174.01 601.75 174.01 601.75 128.4 619.73 128.4 619.73 115.21 567.06 115.21 567.06 128.4"/><path class="cls-1" d="M665.85,115.21H649.47l-26,58.81h17l4.62-11.43H670L674.59,174h17.3ZM650,150.32l7.56-18.81,7.57,18.81Z"/><rect class="cls-1" x="704.16" y="115.21" width="16.63" height="58.81"/><polygon class="cls-1" points="756.83 160.83 756.83 115.21 740.2 115.21 740.2 174.01 784.89 174.01 784.89 160.83 756.83 160.83"/><polygon class="cls-1" points="293.13 196.77 288.57 196.77 288.57 225.78 311.93 225.78 311.93 221.81 293.13 221.81 293.13 196.77"/><path class="cls-1" d="M371.38,199.87a14.59,14.59,0,0,0-5.26-2.66,24.46,24.46,0,0,0-6.5-.83,24.06,24.06,0,0,0-6.44.83,14.76,14.76,0,0,0-5.26,2.66,12.4,12.4,0,0,0-3.53,4.65,18.66,18.66,0,0,0,0,13.43,12.43,12.43,0,0,0,3.49,4.67,14.5,14.5,0,0,0,5.26,2.7,25.15,25.15,0,0,0,13,0,14.5,14.5,0,0,0,5.26-2.7,12.43,12.43,0,0,0,3.49-4.67,16.71,16.71,0,0,0,1.24-6.71,16.38,16.38,0,0,0-1.27-6.72A12.44,12.44,0,0,0,371.38,199.87Zm-11.76,22.34a17.59,17.59,0,0,1-4.92-.65,10.13,10.13,0,0,1-3.74-2,8.92,8.92,0,0,1-2.4-3.38,13,13,0,0,1-.87-5,12.53,12.53,0,0,1,.89-5,9.16,9.16,0,0,1,2.42-3.36,9.83,9.83,0,0,1,3.73-1.94,19,19,0,0,1,9.77,0,9.91,9.91,0,0,1,3.76,2,9,9,0,0,1,2.44,3.35,12.53,12.53,0,0,1,.88,5,13,13,0,0,1-.86,5,8.86,8.86,0,0,1-2.42,3.38,10.38,10.38,0,0,1-3.76,2A17.65,17.65,0,0,1,359.62,222.21Z"/><path class="cls-1" d="M426.27,212.82H437V219a14.09,14.09,0,0,1-4.66,2.5,20.07,20.07,0,0,1-5.56.73,17.33,17.33,0,0,1-4.95-.67,10.05,10.05,0,0,1-3.74-2,8.88,8.88,0,0,1-2.39-3.37,13,13,0,0,1-.85-4.92,13.21,13.21,0,0,1,.85-5,8.55,8.55,0,0,1,2.38-3.34,10.11,10.11,0,0,1,3.76-1.95,17.6,17.6,0,0,1,5-.66,20.24,20.24,0,0,1,3,.25,11.54,11.54,0,0,1,2.91.86,8.12,8.12,0,0,1,2.37,1.6,5.31,5.31,0,0,1,1.39,2.49l.15.56,4.47-1-.18-.6a9.71,9.71,0,0,0-2.25-4,11.7,11.7,0,0,0-3.47-2.49,16.42,16.42,0,0,0-4.15-1.28,26.15,26.15,0,0,0-4.29-.36,24.37,24.37,0,0,0-6.58.85,14.33,14.33,0,0,0-5.24,2.7,12.54,12.54,0,0,0-3.45,4.65,18.82,18.82,0,0,0,0,13.33A12.69,12.69,0,0,0,415,222.6a14.19,14.19,0,0,0,5.25,2.72,24,24,0,0,0,6.58.86,28.58,28.58,0,0,0,2.86-.15,20.73,20.73,0,0,0,2.94-.49,17.83,17.83,0,0,0,2.84-.94,10.82,10.82,0,0,0,1.58-.84v2h4.56V208.86H426.27Z"/><rect class="cls-1" x="478.77" y="196.77" width="4.56" height="29"/><path class="cls-1" d="M544.67,210.7a15.35,15.35,0,0,0-4-1.26c-1.45-.25-3-.45-4.5-.58s-3-.25-4.46-.36a25.23,25.23,0,0,1-3.78-.54,7.42,7.42,0,0,1-2.54-1,1.85,1.85,0,0,1-.78-1.64,3.51,3.51,0,0,1,.84-2.49,6,6,0,0,1,2.24-1.51,11.64,11.64,0,0,1,3-.74,25.78,25.78,0,0,1,3-.2,27.63,27.63,0,0,1,3.06.18,11.67,11.67,0,0,1,2.95.7,8.14,8.14,0,0,1,2.43,1.44,5.07,5.07,0,0,1,1.49,2.36l.17.53L548,204.5l-.2-.6a9.18,9.18,0,0,0-2.3-3.8,11.65,11.65,0,0,0-3.41-2.28,15.65,15.65,0,0,0-4-1.14,30.23,30.23,0,0,0-4.24-.3,25.59,25.59,0,0,0-4.31.4,17.51,17.51,0,0,0-4.45,1.4,10.65,10.65,0,0,0-3.53,2.7,6.57,6.57,0,0,0-1.49,4.4,5.61,5.61,0,0,0,1.17,3.69,7.55,7.55,0,0,0,2.94,2.14,16.8,16.8,0,0,0,4,1.07c1.45.21,2.95.38,4.47.5s3,.25,4.42.4a20.77,20.77,0,0,1,3.75.69,6.44,6.44,0,0,1,2.49,1.3,2.69,2.69,0,0,1,.84,2.13,3.4,3.4,0,0,1-1,2.63,7.23,7.23,0,0,1-2.62,1.56,13.78,13.78,0,0,1-3.39.68c-1.22.09-2.3.14-3.22.14a30,30,0,0,1-3.41-.2,12,12,0,0,1-3.07-.74,7.27,7.27,0,0,1-2.41-1.5,5.62,5.62,0,0,1-1.47-2.51l-.16-.54L519,217.84l.14.57a8.27,8.27,0,0,0,2.14,4,10.79,10.79,0,0,0,3.58,2.36,16.85,16.85,0,0,0,4.38,1.11,38,38,0,0,0,4.62.29c1.44,0,3-.09,4.71-.25a17.16,17.16,0,0,0,4.83-1.15,9.72,9.72,0,0,0,3.83-2.71,7.29,7.29,0,0,0,1.57-4.87,6.8,6.8,0,0,0-1.14-4A8,8,0,0,0,544.67,210.7Z"/><polygon class="cls-1" points="580.58 200.74 593.3 200.74 593.3 225.78 597.86 225.78 597.86 200.74 610.58 200.74 610.58 196.77 580.58 196.77 580.58 200.74"/><rect class="cls-1" x="645.96" y="196.77" width="4.56" height="29"/><path class="cls-1" d="M712.72,217.94a4.66,4.66,0,0,1-1.53,2.06,8.9,8.9,0,0,1-2.47,1.33,13.37,13.37,0,0,1-2.89.68,22.6,22.6,0,0,1-2.81.2,16.46,16.46,0,0,1-4.91-.69,10.41,10.41,0,0,1-3.76-2,9,9,0,0,1-2.43-3.38,12.61,12.61,0,0,1-.87-4.87,13.08,13.08,0,0,1,.85-5,8.59,8.59,0,0,1,2.38-3.33A10.11,10.11,0,0,1,698,201a18.15,18.15,0,0,1,8-.41,12.07,12.07,0,0,1,2.91.87,8.15,8.15,0,0,1,2.36,1.63,5.29,5.29,0,0,1,1.38,2.46l.15.55,4.47-1-.18-.61a9.79,9.79,0,0,0-2.23-4,11.69,11.69,0,0,0-3.43-2.47,16.05,16.05,0,0,0-4.15-1.28,26.48,26.48,0,0,0-4.31-.36,24.94,24.94,0,0,0-6.62.83,14.09,14.09,0,0,0-5.22,2.66,12.36,12.36,0,0,0-3.43,4.65,19.09,19.09,0,0,0,0,13.43,12.6,12.6,0,0,0,3.42,4.67,14.2,14.2,0,0,0,5.23,2.7,24.12,24.12,0,0,0,6.62.86,30.06,30.06,0,0,0,4.14-.31,18,18,0,0,0,4.15-1.09,12.11,12.11,0,0,0,3.59-2.19,8.49,8.49,0,0,0,2.39-3.69l.23-.66-4.58-.75Z"/><path class="cls-1" d="M776.64,210.7a15.35,15.35,0,0,0-4-1.26c-1.46-.25-3-.45-4.5-.58s-3-.25-4.46-.36a25.56,25.56,0,0,1-3.79-.54,7.28,7.28,0,0,1-2.53-1,1.85,1.85,0,0,1-.78-1.64,3.51,3.51,0,0,1,.84-2.49,5.92,5.92,0,0,1,2.24-1.51,11.64,11.64,0,0,1,3-.74,25.78,25.78,0,0,1,3-.2,27.63,27.63,0,0,1,3.06.18,11.78,11.78,0,0,1,3,.7,8.27,8.27,0,0,1,2.43,1.44,5.07,5.07,0,0,1,1.49,2.36l.17.53,4.21-1.05-.19-.6a9.18,9.18,0,0,0-2.3-3.8,11.65,11.65,0,0,0-3.41-2.28,15.87,15.87,0,0,0-4-1.14,30.33,30.33,0,0,0-4.24-.3,25.49,25.49,0,0,0-4.31.4,17.39,17.39,0,0,0-4.45,1.4,10.65,10.65,0,0,0-3.53,2.7,6.57,6.57,0,0,0-1.5,4.4,5.66,5.66,0,0,0,1.17,3.69,7.66,7.66,0,0,0,2.95,2.14,16.67,16.67,0,0,0,4,1.07c1.44.21,3,.38,4.47.5s3,.25,4.42.4a20.77,20.77,0,0,1,3.75.69,6.44,6.44,0,0,1,2.49,1.3,2.72,2.72,0,0,1,.84,2.13,3.44,3.44,0,0,1-1,2.63,7.27,7.27,0,0,1-2.63,1.56,13.68,13.68,0,0,1-3.39.68c-1.22.09-2.3.14-3.21.14a29.73,29.73,0,0,1-3.41-.2,11.9,11.9,0,0,1-3.07-.74,7.27,7.27,0,0,1-2.41-1.5,5.53,5.53,0,0,1-1.47-2.51l-.17-.54L751,217.84l.14.57a8.19,8.19,0,0,0,2.14,4,10.85,10.85,0,0,0,3.57,2.36,16.93,16.93,0,0,0,4.39,1.11,38,38,0,0,0,4.62.29c1.44,0,3-.09,4.71-.25a17.24,17.24,0,0,0,4.83-1.15,9.8,9.8,0,0,0,3.83-2.71,7.29,7.29,0,0,0,1.57-4.87,6.81,6.81,0,0,0-1.15-4A7.93,7.93,0,0,0,776.64,210.7Z"/><path class="cls-2" d="M262.26,172.24c-1.77-4.8-4.33-8.11-7.1-11.64-.74-.94-1.72-2.15-2.95-3.53a5.91,5.91,0,0,1-1.52-3.71,16.23,16.23,0,0,0-1.95-7.35c-2.57-4.66-7-6.82-10.57-8.56a37.88,37.88,0,0,0-5.63-2.13c-5.39-1.48-16.41-2.5-29.66,1h0l0,0c-1.38.37-2.79.78-4.22,1.25a42.81,42.81,0,0,1-8,1.14,41.18,41.18,0,0,1-16-2.41c-2.75-1-5.49-2.46-14.65-9.74-4.06-3.23-9.42-7.63-15.58-13.14h0c-42-37.48-123.55-52.81-144-99.78a71.28,71.28,0,0,0,6.67,19.9c3.51,6.88,8.52,13.86,18.47,22.88,16.59,15.06,35,24.92,48.59,31l1.37.44q-46.77-14.08-61.19-23A88.23,88.23,0,0,0,24.58,75.69C35.1,85.07,45.11,89.5,56.83,94.56a214.45,214.45,0,0,0,32,10.92c-24.58-.39-38.32-3-45-7.34a52,52,0,0,0,7.32,6.06c5,3.42,10.68,6,22.08,8.7a181.75,181.75,0,0,0,29.25,4.49,112.07,112.07,0,0,1-37.86,1.07,95.6,95.6,0,0,0,13,6.79,98.4,98.4,0,0,0,40.95,7.64l1.74-.08c-18.64,2.75-31.18,2.66-40.58.39a92.08,92.08,0,0,0,14,7.13,94.74,94.74,0,0,0,35.53,6.85c-8.31,2.53-24.52,2-34.61.13,3.59,2.07,7.48,4.13,11.66,6.13a177.81,177.81,0,0,0,19.71,8.05l2,.42a41.34,41.34,0,0,1,4.28,1.16,34.69,34.69,0,0,1,6.46,2.84h0a25.93,25.93,0,0,1,4.07,2.81l.14.12.17.15a19.32,19.32,0,0,1,3.71,4.14l0,.07a17.14,17.14,0,0,1,2.1,4.38v0c3.26,9.79-1.19,31.36-1.19,31.36a125.12,125.12,0,0,0-2.38,30.09q-.6,5.77-1.21,11.54,4-10.2,8.06-20.42c.12-.32.25-.64.37-.95l.07-.18q1.66-4.22,3.65-8.26a105.8,105.8,0,0,1,27.86-35.22,118,118,0,0,1,21.52-14.09s23.85-12,38.69-6.47a56.42,56.42,0,0,1,6.15,2.81,125,125,0,0,1,13.12,9.9A32.4,32.4,0,0,0,262.26,172.24Z"/><path class="cls-3" d="M149,177.62v0a15.78,15.78,0,0,1,.67,5.52,98.33,98.33,0,0,0-6.79,17.51c-.3,1.1-.49,1.89-.69,2.93-.41,2.13-.87,5.35-2.39,14.6-1.05,6.41-1.89,11.26-2.57,15a68.84,68.84,0,0,1-4.2,12.47,88.29,88.29,0,0,1-7.29,13.05c-.68,1-1.13,1.62-1.2,1.72v0l6.42-8.17c-1.93,3.6-4.11,7.33-6.56,11.16-1.26,2-2.54,3.88-3.81,5.7a43.41,43.41,0,0,0,4.88-5,44.56,44.56,0,0,0,6.88-11.45c-1,2.75-2.31,6.23-4,10.06a124.38,124.38,0,0,1-17.13,27.7,112.15,112.15,0,0,1-32.11,26.23,45.72,45.72,0,0,0,8.29-3.08,46.58,46.58,0,0,0,7.76-4.82,107.36,107.36,0,0,0,14.32-13.11,145,145,0,0,0,19.41-27.44c.47-.85,2.27-4.49,5.88-11.77,0,0,2.23-4.49,5.46-10.8q-2.22,6.81-4.77,13.93c-1.22,3.38-2.46,6.7-3.71,9.93a204.78,204.78,0,0,0,9.73-20.07c1.49-3.54,2.82-7,4-10.34A125.12,125.12,0,0,1,147.83,209S152.28,187.41,149,177.62Z"/><path class="cls-4" d="M51.15,104.2a52,52,0,0,1-7.32-6.06c5.24,13.15,23.35,21,58.65,19.25a181.75,181.75,0,0,1-29.25-4.49C61.83,110.18,56.16,107.62,51.15,104.2Z"/><path class="cls-5" d="M77.65,125.25a95.6,95.6,0,0,1-13-6.79c5.54,12.46,21.68,15.58,52.77,14.47l1.21,0A98.4,98.4,0,0,1,77.65,125.25Z"/><path class="cls-6" d="M24.58,75.69A88.23,88.23,0,0,1,14.29,64.83Q25.71,96.6,88.86,105.48a214.45,214.45,0,0,1-32-10.92C45.11,89.5,35.1,85.07,24.58,75.69Z"/><path class="cls-7" d="M7.05,33.54A71.28,71.28,0,0,1,.38,13.64q-5.22,42.06,62,69.28C67,85,71,86.4,74.11,87.42c-13.63-6.08-32-15.94-48.59-31C15.57,47.4,10.56,40.42,7.05,33.54Z"/><path class="cls-8" d="M79.76,133.2c5.87,11,24.79,15.18,49.54,14a94.74,94.74,0,0,1-35.53-6.85A92.08,92.08,0,0,1,79.76,133.2Z"/><path class="cls-9" d="M94.69,147.31c4.63,7.78,17.93,11.26,31.37,14.18a177.81,177.81,0,0,1-19.71-8.05C102.17,151.44,98.28,149.38,94.69,147.31Z"/><path class="cls-10" d="M122.4,27.3A54.29,54.29,0,0,0,124.81,42C130.39,60,144,70.13,149.7,73.87a174.4,174.4,0,0,1-17.31-25.48A173.26,173.26,0,0,1,122.4,27.3Z"/><path class="cls-11" d="M134.79,72.75a139.27,139.27,0,0,1-9.72-17.08A54.76,54.76,0,0,0,129.49,70c6.94,14.79,18.84,22.54,24.49,25.69A139.17,139.17,0,0,1,134.79,72.75Z"/><path class="cls-12" d="M129.49,0a57,57,0,0,0,.13,10.57c2.15,20,14.59,33.76,21,39.88A121.45,121.45,0,0,1,136,23.5,121.15,121.15,0,0,1,129.49,0Z"/><path class="cls-13" d="M135.24,86.85a91.13,91.13,0,0,0,11.65,16.06,89.93,89.93,0,0,0,15.39,13.51q-7-7-14.22-14.92Q141.28,94.06,135.24,86.85Z"/><path class="cls-14" d="M196.63,116c-1.89-7.51-4.3-17.55-1.7-29.71l0-.12a15.66,15.66,0,0,0-5.74-15.74l-1.44-1.13a125.43,125.43,0,0,1-20.94-21.41c-10-12.52-22.72-28.64-37.34-47.91A121.15,121.15,0,0,0,136,23.5a121.45,121.45,0,0,0,14.63,27A133.13,133.13,0,0,1,133.5,38,132.34,132.34,0,0,1,122.4,27.3a173.26,173.26,0,0,0,10,21.09A174.4,174.4,0,0,0,149.7,73.87a69.36,69.36,0,0,1-11.51-6.42,69.54,69.54,0,0,1-13.12-11.78,139.27,139.27,0,0,0,9.72,17.08A139.17,139.17,0,0,0,154,95.68a45.88,45.88,0,0,1-18.74-8.83q6,7.2,12.82,14.65,7.2,7.89,14.22,14.92a46.58,46.58,0,0,0,21.16,12.75,45.88,45.88,0,0,0,17.88,1.31h0l.26-.07A89.09,89.09,0,0,1,196.63,116Z"/><path class="cls-15" d="M183.44,129.17a46.58,46.58,0,0,1-21.16-12.75,33,33,0,0,1-7.1-2.27c-.61-.27-1.19-.56-1.74-.85,3.41,2.93,6.86,5.79,10.32,8.54,8.65,6.87,10.94,8,13,8.81a35,35,0,0,0,13.56,2,36.45,36.45,0,0,0,6.65-.92c1.43-.47,2.88-.9,4.32-1.28A45.88,45.88,0,0,1,183.44,129.17Z"/><path class="cls-16" d="M250.61,162.82c-22.43-14.61-59-1-78.83,18.73-20.5,20.31-25.41,48.65-26.33,57.52q-.6,5.77-1.21,11.54,4-10.2,8.06-20.42c.12-.32.25-.64.37-.95l.07-.18q1.66-4.22,3.65-8.26a105.8,105.8,0,0,1,27.86-35.22,118,118,0,0,1,21.52-14.09s23.85-12,38.69-6.47a56.42,56.42,0,0,1,6.15,2.81,125,125,0,0,1,13.12,9.9A39.37,39.37,0,0,0,250.61,162.82Z"/><path class="cls-16" d="M125.75,258.68c-.68,1-1.13,1.62-1.2,1.72v0l6.42-8.17c-.87,1-1.76,2-2.65,3.08S126.54,257.59,125.75,258.68Z"/><path class="cls-16" d="M120.59,269.11a43.41,43.41,0,0,0,4.88-5,44.56,44.56,0,0,0,6.88-11.45,101.49,101.49,0,0,1-6.47,9.89C124.1,265,122.32,267.14,120.59,269.11Z"/><path class="cls-16" d="M131.7,269.48a204.78,204.78,0,0,0,9.73-20.07c1.49-3.54,2.82-7,4-10.34q-3.63,8.18-7.36,16.41Q134.91,262.53,131.7,269.48Z"/><path class="cls-16" d="M51.15,104.2a52,52,0,0,1-7.32-6.06c5.24,13.15,23.35,21,58.65,19.25a181.75,181.75,0,0,1-29.25-4.49C61.83,110.18,56.16,107.62,51.15,104.2Z"/><path class="cls-16" d="M77.65,125.25a95.6,95.6,0,0,1-13-6.79c5.54,12.46,21.68,15.58,52.77,14.47l1.21,0A98.4,98.4,0,0,1,77.65,125.25Z"/><path class="cls-16" d="M24.58,75.69A87.58,87.58,0,0,1,14.29,64.83a45.36,45.36,0,0,0,4.76,9.33c1.67,2.5,6.75,9.83,19.59,16.72,18.71,10,40.14,12.88,50.22,14.6a214.46,214.46,0,0,1-36.35-12.8C35.27,84.79,27.76,78.52,24.58,75.69Z"/><path class="cls-16" d="M7.05,33.54A71.28,71.28,0,0,1,.38,13.64q-5.22,42.06,62,69.28C67,85,71,86.4,74.11,87.42c-13.63-6.08-32-15.94-48.59-31C15.57,47.4,10.56,40.42,7.05,33.54Z"/><path class="cls-16" d="M79.76,133.2c5.87,11,24.79,15.18,49.54,14a94.74,94.74,0,0,1-35.53-6.85A92.08,92.08,0,0,1,79.76,133.2Z"/><path class="cls-16" d="M94.69,147.31c4.63,7.78,17.93,11.26,31.37,14.18a177.81,177.81,0,0,1-19.71-8.05C102.17,151.44,98.28,149.38,94.69,147.31Z"/><path class="cls-16" d="M122.4,27.3A54.29,54.29,0,0,0,124.81,42C130.39,60,144,70.13,149.7,73.87a174.4,174.4,0,0,1-17.31-25.48A173.26,173.26,0,0,1,122.4,27.3Z"/><path class="cls-16" d="M134.79,72.75a139.27,139.27,0,0,1-9.72-17.08A54.76,54.76,0,0,0,129.49,70c6.94,14.79,18.84,22.54,24.49,25.69A139.17,139.17,0,0,1,134.79,72.75Z"/><path class="cls-16" d="M129.49,0a57,57,0,0,0,.13,10.57c2.15,20,14.59,33.76,21,39.88A121.45,121.45,0,0,1,136,23.5,121.15,121.15,0,0,1,129.49,0Z"/><path class="cls-16" d="M135.24,86.85a91.13,91.13,0,0,0,11.65,16.06,89.93,89.93,0,0,0,15.39,13.51q-7-7-14.22-14.92Q141.28,94.06,135.24,86.85Z"/><path class="cls-16" d="M183.44,129.17a46.58,46.58,0,0,1-21.16-12.75,33,33,0,0,1-7.1-2.27c-.61-.27-1.19-.56-1.74-.85,3.41,2.93,6.86,5.79,10.32,8.54,8.65,6.87,10.94,8,13,8.81a35,35,0,0,0,13.56,2,36.45,36.45,0,0,0,6.65-.92c1.43-.47,2.88-.9,4.32-1.28A45.88,45.88,0,0,1,183.44,129.17Z"/></g></g></g></svg>