<svg xmlns="http://www.w3.org/2000/svg" viewBox="0 0 263.73 316.64"><defs><style>.cls-1{fill:#3f3f3f;}</style></defs><g id="Layer_2" data-name="Layer 2"><g id="Branding_by_Patrick_Liddell" data-name="Branding by Patrick Liddell"><g id="Logo_Icon_Black"><path class="cls-1" d="M262.26,172.24c-1.77-4.8-4.33-8.11-7.1-11.64-.74-.94-1.72-2.15-2.95-3.53a5.91,5.91,0,0,1-1.52-3.71,16.23,16.23,0,0,0-1.95-7.35c-2.57-4.66-7-6.82-10.57-8.56a37.88,37.88,0,0,0-5.63-2.13c-5.39-1.48-16.41-2.5-29.66,1h0l0,0c-1.38.37-2.79.78-4.22,1.25a42.81,42.81,0,0,1-8,1.14,41.18,41.18,0,0,1-16-2.41c-2.75-1-5.49-2.46-14.65-9.74-4.06-3.23-9.42-7.63-15.58-13.14h0c-42-37.48-123.55-52.81-144-99.78q-5.22,42.06,62,69.28C67,85,71,86.4,74.11,87.42l1.37.44q-46.77-14.08-61.19-23,.18.51.42,1.08a38.64,38.64,0,0,0,2.57,5.35c.19.35.4.7.61,1l.07.12c.34.57.7,1.15,1.09,1.73,1.67,2.5,6.74,9.83,19.59,16.72Q57.29,101,88.86,105.48c-24.58-.39-38.32-3-45-7.34,5.24,13.15,23.35,21,58.65,19.25a112.07,112.07,0,0,1-37.86,1.07c5.54,12.46,21.68,15.58,52.77,14.47l1.21,0,1.74-.08c-18.64,2.75-31.18,2.66-40.58.39,5.87,11,24.79,15.18,49.54,14-8.31,2.53-24.52,2-34.61.13,4.63,7.78,17.93,11.26,31.37,14.18l2,.42a41.34,41.34,0,0,1,4.28,1.16,34.69,34.69,0,0,1,6.46,2.84h0a25.93,25.93,0,0,1,4.07,2.81l.14.12.17.15a19.32,19.32,0,0,1,3.71,4.14l0,.07a17.14,17.14,0,0,1,2.1,4.38,15.78,15.78,0,0,1,.67,5.52,98.33,98.33,0,0,0-6.79,17.51c-.3,1.1-.49,1.89-.69,2.93-.41,2.13-.87,5.35-2.39,14.6-1.05,6.41-1.89,11.26-2.57,15a68.84,68.84,0,0,1-4.2,12.47,88.29,88.29,0,0,1-7.29,13.05c-.68,1-1.13,1.62-1.2,1.72v0l6.42-8.17c-1.93,3.6-4.11,7.33-6.56,11.16-1.26,2-2.54,3.88-3.81,5.7a43.41,43.41,0,0,0,4.88-5,44.56,44.56,0,0,0,6.88-11.45c-1,2.75-2.31,6.23-4,10.06a124.38,124.38,0,0,1-17.13,27.7,112,112,0,0,1-32.12,26.23,45.51,45.51,0,0,0,8.3-3.08,46.58,46.58,0,0,0,7.76-4.82,107.36,107.36,0,0,0,14.32-13.11,145,145,0,0,0,19.41-27.44c.47-.85,2.27-4.49,5.88-11.77,0,0,2.23-4.49,5.46-10.8q-2.22,6.81-4.77,13.93-1.83,5.08-3.71,9.93a204.78,204.78,0,0,0,9.73-20.07c1.49-3.54,2.82-7,4-10.34q-.6,5.77-1.21,11.54,4-10.2,8.06-20.42c.12-.32.25-.64.37-.95l.07-.18q1.66-4.22,3.65-8.26a105.8,105.8,0,0,1,27.86-35.22,118,118,0,0,1,21.52-14.09s23.85-12,38.69-6.47a56.42,56.42,0,0,1,6.15,2.81,125,125,0,0,1,13.12,9.9A32.4,32.4,0,0,0,262.26,172.24Z"/><path class="cls-1" d="M149.7,73.87a69.36,69.36,0,0,1-11.51-6.42,69.54,69.54,0,0,1-13.12-11.78A54.76,54.76,0,0,0,129.49,70c6.94,14.79,18.84,22.54,24.49,25.69a45.88,45.88,0,0,1-18.74-8.83,91.13,91.13,0,0,0,11.65,16.06,89.93,89.93,0,0,0,15.39,13.51,33,33,0,0,1-7.1-2.27c-.61-.27-1.19-.56-1.74-.85,3.41,2.93,6.86,5.79,10.32,8.54,8.65,6.87,10.94,8,13,8.81a35,35,0,0,0,13.56,2,36.45,36.45,0,0,0,6.65-.92c1.43-.47,2.88-.9,4.32-1.28h0l.26-.07a89.09,89.09,0,0,1-5-14.39c-1.89-7.51-4.3-17.55-1.7-29.71l0-.12a15.66,15.66,0,0,0-5.74-15.74l-1.44-1.13a125.43,125.43,0,0,1-20.94-21.41c-10-12.52-22.72-28.64-37.34-47.91a57,57,0,0,0,.13,10.57c2.15,20,14.59,33.76,21,39.88A133.13,133.13,0,0,1,133.5,38,132.34,132.34,0,0,1,122.4,27.3,54.29,54.29,0,0,0,124.81,42C130.39,60,144,70.13,149.7,73.87Z"/></g></g></g></svg>