<svg xmlns="http://www.w3.org/2000/svg" viewBox="0 0 391.06 431.39"><defs><style>.cls-1{fill:#3f3f3f;}</style></defs><g id="Layer_2" data-name="Layer 2"><g id="Branding_by_Patrick_Liddell" data-name="Branding by Patrick Liddell"><g id="Logo_V2_Black"><path class="cls-1" d="M280.77,198c.65-.05,1.3-.1,2-.12s1.3,0,1.95,0a37.16,37.16,0,0,1,3.82.18,28.14,28.14,0,0,1,7.16,1.59c1.84.69,3.7,1.54,5.1,2.22s2.34,1.18,2.34,1.18c1.84,1.2,4.13,2.77,6.8,4.75s5.72,4.37,9.06,7.23a36.9,36.9,0,0,0-1.78-6.64c-2.13-5.8-5.23-9.81-8.57-14.08-.9-1.14-2.09-2.61-3.58-4.27a7.07,7.07,0,0,1-1.83-4.49,19.71,19.71,0,0,0-2.36-8.88c-3.12-5.64-8.48-8.26-12.79-10.36a45.74,45.74,0,0,0-6.8-2.57c-6.52-1.8-19.86-3-35.88,1.2h0l0,0c-1.67.44-3.38.94-5.1,1.51a50.74,50.74,0,0,1-9.71,1.37,49.79,49.79,0,0,1-19.3-2.91c-3.33-1.26-6.65-3-17.73-11.78-4.91-3.9-11.39-9.23-18.84-15.89h0C123.82,91.84,25.24,73.3.45,16.5q-6.3,50.86,75,83.79c5.59,2.44,10.48,4.2,14.21,5.43l1.65.53q-56.55-17-74-27.84c.15.41.32.84.51,1.3a47.41,47.41,0,0,0,3.1,6.47c.24.42.49.85.75,1.28,0,0,.05.09.08.14.42.69.85,1.38,1.32,2.09,2,3,8.16,11.89,23.69,20.22q22.56,12.28,60.74,17.66c-29.74-.47-46.34-3.66-54.46-8.88,6.34,15.9,28.23,25.4,70.93,23.29a135.65,135.65,0,0,1-45.79,1.28c6.71,15.08,26.22,18.84,63.83,17.5l1.46,0,2.1-.1c-22.54,3.33-37.71,3.21-49.08.47,7.1,13.26,30,18.36,59.91,16.91-10.05,3.06-29.65,2.43-41.86.16,5.6,9.4,21.7,13.62,38,17.14l2.37.51a52.43,52.43,0,0,1,5.18,1.4,42.82,42.82,0,0,1,7.8,3.44h0a31,31,0,0,1,4.92,3.4l.16.15.22.18a23.46,23.46,0,0,1,4.49,5l0,.08a20,20,0,0,1,2.54,5.3,18.88,18.88,0,0,1,.81,6.67,119.12,119.12,0,0,0-8.21,21.18c-.36,1.33-.59,2.28-.83,3.54-.5,2.58-1,6.47-2.89,17.66-1.28,7.75-2.29,13.62-3.11,18.16a83.19,83.19,0,0,1-5.09,15.08,106.52,106.52,0,0,1-8.81,15.79c-.82,1.22-1.36,1.95-1.45,2.08v0l7.76-9.87c-2.33,4.34-5,8.86-7.93,13.49-1.53,2.4-3.07,4.69-4.61,6.9a53.76,53.76,0,0,0,5.91-6.07,54.4,54.4,0,0,0,8.32-13.84c-1.18,3.33-2.8,7.53-4.9,12.16a150.39,150.39,0,0,1-20.72,33.5,135.55,135.55,0,0,1-38.84,31.72,54.6,54.6,0,0,0,10-3.72,56.43,56.43,0,0,0,9.39-5.83,130.51,130.51,0,0,0,17.32-15.86,175.19,175.19,0,0,0,23.47-33.18c.57-1,2.75-5.44,7.12-14.24,0,0,2.68-5.43,6.59-13.06q-2.67,8.25-5.76,16.85-2.22,6.14-4.5,12a249.26,249.26,0,0,0,11.78-24.27c1.79-4.28,3.41-8.46,4.85-12.51q-.72,7-1.45,14h0q4.89-12.34,9.74-24.7l.45-1.15.09-.21c.66-1.7,1.37-3.38,2.1-5s1.51-3.31,2.31-4.94a129.81,129.81,0,0,1,12.47-20.39,128.35,128.35,0,0,1,8.74-10.48,124.82,124.82,0,0,1,12.48-11.73,145.89,145.89,0,0,1,13.57-9.88,137,137,0,0,1,12.46-7.16,111.07,111.07,0,0,1,16.25-6.31l.93-.27c1.61-.47,3.29-.92,5-1.31l2.29-.49c1.16-.23,2.33-.44,3.51-.61S279.46,198.06,280.77,198Z"/><path class="cls-1" d="M181,89.34a84.66,84.66,0,0,1-13.92-7.77,84.52,84.52,0,0,1-15.86-14.24,66.27,66.27,0,0,0,5.34,17.31c8.39,17.9,22.78,27.26,29.62,31.08a55.23,55.23,0,0,1-10.52-3.4A56.11,56.11,0,0,1,163.56,105a110.33,110.33,0,0,0,14.08,19.42,109.44,109.44,0,0,0,18.62,16.34,40.08,40.08,0,0,1-8.58-2.75c-.74-.33-1.44-.67-2.11-1,4.12,3.54,8.29,7,12.48,10.32,10.46,8.31,13.23,9.7,15.76,10.66a42.52,42.52,0,0,0,16.4,2.45,44,44,0,0,0,8-1.11c1.72-.57,3.48-1.08,5.21-1.54h0l.31-.08a108.66,108.66,0,0,1-6-17.4c-2.29-9.09-5.2-21.22-2.06-35.93l0-.15a19,19,0,0,0-6.95-19l-1.74-1.37a152.17,152.17,0,0,1-25.33-25.89C189.66,42.8,174.28,23.31,156.6,0a68.94,68.94,0,0,0,.17,12.79C159.37,37,174.4,53.61,182.18,61A160.18,160.18,0,0,1,161.46,46,159,159,0,0,1,148,33a65.65,65.65,0,0,0,2.91,17.8C157.7,72.61,174.14,84.81,181,89.34Z"/><polygon class="cls-1" points="42.19 306.49 39.38 300.22 17.2 310.17 24.77 327.02 29.74 324.79 24.99 314.21 42.19 306.49"/><path class="cls-1" d="M63.37,343.64a15.56,15.56,0,0,0-8.2-11.17,12.42,12.42,0,0,0-17.75,13,15.5,15.5,0,0,0,8.2,11.17,12.43,12.43,0,0,0,17.75-13ZM56.69,347a7.47,7.47,0,0,1-2.41,2.85,7.36,7.36,0,0,1-3.44,1.44,6.19,6.19,0,0,1-3.37-.45,6.83,6.83,0,0,1-3.95-5.38,6.24,6.24,0,0,1,.58-3.35A8,8,0,0,1,50,337.83a6.22,6.22,0,0,1,3.37.45A6.51,6.51,0,0,1,56,340.46a6.43,6.43,0,0,1,1.27,3.2A6.23,6.23,0,0,1,56.69,347Z"/><polygon class="cls-1" points="81.22 378.29 81.56 361.47 77.27 357.77 61.4 376.18 66.5 380.58 74.95 370.77 74.62 387.59 78.91 391.29 94.78 372.88 89.68 368.48 81.22 378.29"/><path class="cls-1" d="M110.06,390.87a6.86,6.86,0,0,1,5.33.72,7.72,7.72,0,0,1,3.91,5.19l5.73-1.41a11.76,11.76,0,0,0-2.41-5.05,15.4,15.4,0,0,0-4.83-3.9,14.85,14.85,0,0,0-6.91-1.89,12,12,0,0,0-6.38,1.66,13.16,13.16,0,0,0-6.2,11.5,12,12,0,0,0,2.09,6.23,14.33,14.33,0,0,0,5.28,4.68,19.08,19.08,0,0,0,5.15,1.87,16,16,0,0,0,5.31.26l4.77-8.87L115.56,399l-3.17,5.87a8.72,8.72,0,0,1-3.65-1.06,7.15,7.15,0,0,1-2.73-2.48,6.27,6.27,0,0,1-1-3.32,7.46,7.46,0,0,1,.94-3.58A6.82,6.82,0,0,1,110.06,390.87Z"/><polygon class="cls-1" points="135.83 401.35 142.98 403.52 137.5 421.56 144.08 423.56 149.56 405.51 156.67 407.67 158.25 402.45 137.41 396.13 135.83 401.35"/><path class="cls-1" d="M177,405.46l-13.08,23.12,7,.7,2.37-4.51,10.22,1,1.43,4.89,7.12.71-8.3-25.26Zm-1.23,14.46,3.88-7.43,2.34,8.05Z"/><rect class="cls-1" x="207.43" y="406.11" width="6.88" height="24.31" transform="translate(-31.03 17.15) rotate(-4.34)"/><polygon class="cls-1" points="239.5 420.66 235.13 402.32 228.44 403.92 234.08 427.56 252.05 423.27 250.78 417.96 239.5 420.66"/><polygon class="cls-1" points="292.87 399.35 283.21 383.16 277.31 386.68 289.76 407.56 305.63 398.09 302.83 393.41 292.87 399.35"/><path class="cls-1" d="M330.2,361.69A12.18,12.18,0,0,0,317.9,358a15.51,15.51,0,0,0-10.2,9.37A12.15,12.15,0,0,0,310.29,380a12.15,12.15,0,0,0,12.29,3.66,14.49,14.49,0,0,0,6.21-3.48,14.64,14.64,0,0,0,4-5.89,12.2,12.2,0,0,0-2.59-12.56Zm-3.39,11.36a6.86,6.86,0,0,1-4.92,4.51,6.34,6.34,0,0,1-3.39-.21,8.07,8.07,0,0,1-4.91-5.35,6.23,6.23,0,0,1,.09-3.4,6.87,6.87,0,0,1,4.91-4.51,6.34,6.34,0,0,1,3.39.21,7.49,7.49,0,0,1,3.1,2.09,7.33,7.33,0,0,1,1.81,3.26A6.22,6.22,0,0,1,326.81,373.05Z"/><path class="cls-1" d="M349.26,335.85l5.48,3.8a8.85,8.85,0,0,1-1.46,3.51,7.15,7.15,0,0,1-2.76,2.43,6.28,6.28,0,0,1-3.41.6,7.33,7.33,0,0,1-3.45-1.34,6.8,6.8,0,0,1-3.07-4.44,6.88,6.88,0,0,1,1.31-5.22,7.7,7.7,0,0,1,5.59-3.31l-.76-5.85a11.73,11.73,0,0,0-5.28,1.83,15.41,15.41,0,0,0-4.42,4.37,14.82,14.82,0,0,0-2.65,6.66,12,12,0,0,0,.94,6.52,13.14,13.14,0,0,0,10.73,7.44,11.89,11.89,0,0,0,6.43-1.38,14.36,14.36,0,0,0,5.24-4.73,19,19,0,0,0,2.43-4.9,15.58,15.58,0,0,0,.85-5.25l-8.28-5.73Z"/><rect class="cls-1" x="358.79" y="301.17" width="6.88" height="24.31" transform="translate(-74.33 510.28) rotate(-65.14)"/><path class="cls-1" d="M383.32,279.25a6.87,6.87,0,0,0-3.49-2.24,5.74,5.74,0,0,0-4.22.21,8,8,0,0,0-2.93,2.46,33.74,33.74,0,0,0-2.46,4.08,19.89,19.89,0,0,1-1.94,3.18,1.56,1.56,0,0,1-1.7.67,1.82,1.82,0,0,1-1.27-1.33,5.65,5.65,0,0,1,.22-3,14.2,14.2,0,0,1,3.63-6l-4.34-3.42a14.44,14.44,0,0,0-2.63,3.52,21.08,21.08,0,0,0-1.8,4.4,14.84,14.84,0,0,0-.59,6,8.08,8.08,0,0,0,1.74,4.26,7,7,0,0,0,3.53,2.26,5.9,5.9,0,0,0,4.24-.19,7.69,7.69,0,0,0,2.94-2.45,34.11,34.11,0,0,0,2.46-4.07,22.19,22.19,0,0,1,2-3.21,1.65,1.65,0,0,1,1.79-.67q1.9.54.84,4.35a14.51,14.51,0,0,1-1.78,3.9,14.7,14.7,0,0,1-2.7,3.18l4.27,3.54a14.09,14.09,0,0,0,3.1-3.82,22.39,22.39,0,0,0,2.25-5.32,14.89,14.89,0,0,0,.58-6A8.44,8.44,0,0,0,383.32,279.25Z"/><polygon class="cls-1" points="372.76 240.92 367.33 240.44 365.44 262.13 370.87 262.61 371.52 255.17 390.3 256.81 390.9 249.96 372.11 248.32 372.76 240.92"/><rect class="cls-1" x="366.54" y="219.85" width="24.31" height="6.87" transform="translate(-15.39 28.45) rotate(-4.22)"/><path class="cls-1" d="M380,189.12a7.09,7.09,0,0,1,0,3.63,6,6,0,0,1-1.79,2.91,8.15,8.15,0,0,1-7.05,1.76,6,6,0,0,1-2.95-1.73,7.1,7.1,0,0,1-1.7-3.21,7.22,7.22,0,0,1,1.38-6.25l-4.9-3.29a11.72,11.72,0,0,0-2.23,5.14,14.7,14.7,0,0,0,.31,6.11,14.38,14.38,0,0,0,3.23,6.27,12,12,0,0,0,5.52,3.54,13.12,13.12,0,0,0,12.67-3.16,12,12,0,0,0,3.2-5.72,14.25,14.25,0,0,0-.09-7,14.69,14.69,0,0,0-2.6-5.55,11.59,11.59,0,0,0-4.38-3.49l-2.78,5.21A7.2,7.2,0,0,1,380,189.12Z"/><path class="cls-1" d="M348.49,159.47a20.61,20.61,0,0,0,1.59,4.48,14.83,14.83,0,0,0,3.53,4.86,8.19,8.19,0,0,0,4.14,2,7,7,0,0,0,4.13-.67,5.84,5.84,0,0,0,3-2.95,7.75,7.75,0,0,0,.57-3.8,35.88,35.88,0,0,0-.88-4.67A21.63,21.63,0,0,1,364,155a1.65,1.65,0,0,1,.9-1.69q1.77-.87,3.51,2.69a15.34,15.34,0,0,1,1.37,8.26l5.55-.2a14,14,0,0,0-.24-4.91,22.1,22.1,0,0,0-1.86-5.47,14.64,14.64,0,0,0-3.54-4.84,8.36,8.36,0,0,0-4.14-2,6.88,6.88,0,0,0-4.1.65,5.76,5.76,0,0,0-3,3,7.93,7.93,0,0,0-.55,3.78,33.52,33.52,0,0,0,.88,4.69,20.72,20.72,0,0,1,.67,3.66,1.57,1.57,0,0,1-.83,1.64,1.84,1.84,0,0,1-1.83-.15,5.68,5.68,0,0,1-1.85-2.42,14.15,14.15,0,0,1-1.28-6.88l-5.51.34A14.3,14.3,0,0,0,348.49,159.47Z"/><path class="cls-1" d="M346.1,136.07l4-2.42a186.05,186.05,0,0,0-22.6-27.37,183,183,0,0,0-103.75-52.1l-.59,4.61a178.44,178.44,0,0,1,101,50.78A182.06,182.06,0,0,1,346.1,136.07Z"/><path class="cls-1" d="M41,138.31a183.16,183.16,0,0,0-28.36,98.38,185.55,185.55,0,0,0,6.44,48.59L23.58,284a180.53,180.53,0,0,1-6.26-47.3,178.61,178.61,0,0,1,27.73-96.05Z"/><path class="cls-1" d="M147.48,63.83l-1.93-4.29A182.1,182.1,0,0,0,97.18,81.61L100.47,85A177.4,177.4,0,0,1,147.48,63.83Z"/></g></g></g></svg>