<svg xmlns="http://www.w3.org/2000/svg" xmlns:xlink="http://www.w3.org/1999/xlink" viewBox="0 0 391.06 431.39"><defs><style>.cls-1{fill:url(#linear-gradient);}.cls-2{fill:url(#linear-gradient-2);}.cls-3{fill:url(#linear-gradient-3);}.cls-4{fill:url(#linear-gradient-4);}.cls-5{fill:url(#linear-gradient-5);}.cls-6{fill:url(#linear-gradient-6);}.cls-7{fill:url(#linear-gradient-7);}.cls-8{fill:url(#linear-gradient-8);}.cls-9{fill:url(#linear-gradient-9);}.cls-10{fill:url(#linear-gradient-10);}.cls-11{fill:url(#linear-gradient-11);}.cls-12{fill:url(#linear-gradient-12);}.cls-13{fill:url(#linear-gradient-13);}.cls-14{fill:url(#linear-gradient-14);}.cls-15{fill:#093148;opacity:0.1;}.cls-16{fill:#3f3f3f;}</style><linearGradient id="linear-gradient" x1="-255.23" y1="56.78" x2="346.97" y2="237.8" gradientUnits="userSpaceOnUse"><stop offset="0" stop-color="#006bb4"/><stop offset="1" stop-color="#00b7e7"/></linearGradient><linearGradient id="linear-gradient-2" x1="95.61" y1="298.85" x2="181.67" y2="298.85" xlink:href="#linear-gradient"/><linearGradient id="linear-gradient-3" x1="-248.4" y1="34.05" x2="353.8" y2="215.06" xlink:href="#linear-gradient"/><linearGradient id="linear-gradient-4" x1="-252.37" y1="47.25" x2="349.83" y2="228.27" xlink:href="#linear-gradient"/><linearGradient id="linear-gradient-5" x1="-242.09" y1="13.07" x2="360.11" y2="194.09" xlink:href="#linear-gradient"/><linearGradient id="linear-gradient-6" x1="-231.54" y1="-22.03" x2="370.66" y2="158.99" xlink:href="#linear-gradient"/><linearGradient id="linear-gradient-7" x1="-255.74" y1="58.46" x2="346.46" y2="239.48" xlink:href="#linear-gradient"/><linearGradient id="linear-gradient-8" x1="-258.96" y1="69.18" x2="343.24" y2="250.2" xlink:href="#linear-gradient"/><linearGradient id="linear-gradient-9" x1="268.03" y1="280.16" x2="133.05" y2="3.41" xlink:href="#linear-gradient"/><linearGradient id="linear-gradient-10" x1="260.89" y1="283.64" x2="125.91" y2="6.89" xlink:href="#linear-gradient"/><linearGradient id="linear-gradient-11" x1="284.11" y1="272.32" x2="149.13" y2="-4.43" xlink:href="#linear-gradient"/><linearGradient id="linear-gradient-12" x1="258.8" y1="284.66" x2="123.82" y2="7.91" xlink:href="#linear-gradient"/><linearGradient id="linear-gradient-13" x1="283.79" y1="272.47" x2="148.82" y2="-4.28" xlink:href="#linear-gradient"/><linearGradient id="linear-gradient-14" x1="277.11" y1="275.73" x2="142.13" y2="-1.02" xlink:href="#linear-gradient"/></defs><g id="Layer_2" data-name="Layer 2"><g id="Branding_by_Patrick_Liddell" data-name="Branding by Patrick Liddell"><g id="Logo_V2"><path class="cls-1" d="M317.17,208.31c-2.13-5.8-5.23-9.81-8.57-14.08-.9-1.14-2.09-2.61-3.58-4.27a7.07,7.07,0,0,1-1.83-4.49,19.71,19.71,0,0,0-2.36-8.88c-3.12-5.64-8.48-8.26-12.79-10.36a45.74,45.74,0,0,0-6.8-2.57c-6.52-1.8-19.86-3-35.88,1.2h0l0,0c-1.67.44-3.38.94-5.1,1.51a50.74,50.74,0,0,1-9.71,1.37,49.79,49.79,0,0,1-19.3-2.91c-3.33-1.26-6.65-3-17.73-11.78-4.91-3.9-11.39-9.23-18.84-15.89h0C123.82,91.84,25.24,73.3.45,16.5A86.42,86.42,0,0,0,8.53,40.56c4.25,8.32,10.3,16.77,22.33,27.68,20.07,18.2,42.29,30.13,58.77,37.48l1.65.53q-56.55-17-74-27.84A108,108,0,0,0,29.73,91.54c12.72,11.35,24.83,16.7,39,22.82a260.65,260.65,0,0,0,38.74,13.21c-29.74-.47-46.34-3.66-54.46-8.88A62.36,62.36,0,0,0,61.86,126c6.06,4.14,12.91,7.23,26.7,10.52A220.22,220.22,0,0,0,123.94,142a135.65,135.65,0,0,1-45.79,1.28,113.72,113.72,0,0,0,15.76,8.21,119,119,0,0,0,49.53,9.25l2.1-.1c-22.54,3.33-37.71,3.21-49.08.47a111.09,111.09,0,0,0,16.94,8.62,114.35,114.35,0,0,0,43,8.29c-10.05,3.06-29.65,2.43-41.86.16,4.35,2.5,9,5,14.1,7.41a214.22,214.22,0,0,0,23.85,9.73l2.37.51a52.43,52.43,0,0,1,5.18,1.4,42.82,42.82,0,0,1,7.8,3.44h0a30.54,30.54,0,0,1,4.92,3.4l.16.15.22.18a23.46,23.46,0,0,1,4.49,5l0,.08a20,20,0,0,1,2.54,5.3l0,0c3.93,11.84-1.44,37.93-1.44,37.93a151.37,151.37,0,0,0-2.89,36.39q-.72,7-1.45,14,4.89-12.34,9.74-24.7l.45-1.15.09-.21c1.33-3.4,2.81-6.73,4.41-10a128,128,0,0,1,33.69-42.6,142.5,142.5,0,0,1,26-17s28.84-14.55,46.79-7.83a72,72,0,0,1,7.44,3.4A153.53,153.53,0,0,1,319,215,36.9,36.9,0,0,0,317.17,208.31Z"/><path class="cls-2" d="M180.23,214.81l0,0a18.88,18.88,0,0,1,.81,6.67,119.12,119.12,0,0,0-8.21,21.18c-.36,1.33-.59,2.28-.83,3.54-.5,2.58-1,6.47-2.89,17.66-1.28,7.75-2.29,13.62-3.11,18.16a83.19,83.19,0,0,1-5.09,15.08,106.52,106.52,0,0,1-8.81,15.79c-.82,1.22-1.36,1.95-1.45,2.08v0l7.76-9.87c-2.33,4.34-5,8.86-7.93,13.49-1.53,2.4-3.07,4.69-4.61,6.9a53.76,53.76,0,0,0,5.91-6.07,54.4,54.4,0,0,0,8.32-13.84c-1.18,3.33-2.8,7.53-4.9,12.16a150.39,150.39,0,0,1-20.72,33.5,135.55,135.55,0,0,1-38.84,31.72,54.6,54.6,0,0,0,10-3.72,56.43,56.43,0,0,0,9.39-5.83,130.51,130.51,0,0,0,17.32-15.86,175.19,175.19,0,0,0,23.47-33.18c.57-1,2.75-5.44,7.12-14.24,0,0,2.68-5.43,6.59-13.06q-2.67,8.25-5.76,16.85-2.22,6.14-4.5,12a248.14,248.14,0,0,0,11.78-24.27c1.79-4.28,3.41-8.46,4.85-12.51a151.37,151.37,0,0,1,2.89-36.39S184.16,226.65,180.23,214.81Z"/><path class="cls-3" d="M61.86,126A62.36,62.36,0,0,1,53,118.69c6.34,15.9,28.23,25.4,70.93,23.29a220.22,220.22,0,0,1-35.38-5.44C74.77,133.25,67.92,130.16,61.86,126Z"/><path class="cls-4" d="M93.91,151.47a113.72,113.72,0,0,1-15.76-8.21c6.71,15.08,26.22,18.84,63.83,17.5l1.46,0A119,119,0,0,1,93.91,151.47Z"/><path class="cls-5" d="M29.73,91.54A108,108,0,0,1,17.28,78.41q13.81,38.41,90.19,49.16a260.65,260.65,0,0,1-38.74-13.21C54.56,108.24,42.45,102.89,29.73,91.54Z"/><path class="cls-6" d="M8.53,40.56A86.42,86.42,0,0,1,.45,16.5q-6.3,50.86,75,83.79c5.59,2.44,10.48,4.2,14.21,5.43-16.48-7.35-38.7-19.28-58.77-37.48C18.83,57.33,12.78,48.88,8.53,40.56Z"/><path class="cls-7" d="M96.46,161.09c7.1,13.26,30,18.36,59.91,16.91a114.35,114.35,0,0,1-43-8.29A111.09,111.09,0,0,1,96.46,161.09Z"/><path class="cls-8" d="M114.51,178.16c5.6,9.4,21.7,13.62,38,17.14a214.22,214.22,0,0,1-23.85-9.73C123.56,183.15,118.86,180.66,114.51,178.16Z"/><path class="cls-9" d="M148,33a65.65,65.65,0,0,0,2.91,17.8c6.76,21.79,23.2,34,30.1,38.52a212.37,212.37,0,0,1-20.93-30.81A212.77,212.77,0,0,1,148,33Z"/><path class="cls-10" d="M163,88a168.91,168.91,0,0,1-11.76-20.65,66.27,66.27,0,0,0,5.34,17.31c8.39,17.9,22.78,27.26,29.62,31.08A168.14,168.14,0,0,1,163,88Z"/><path class="cls-11" d="M156.6,0a68.94,68.94,0,0,0,.17,12.79C159.37,37,174.4,53.61,182.18,61a146.65,146.65,0,0,1-17.7-32.6A147,147,0,0,1,156.6,0Z"/><path class="cls-12" d="M163.56,105a110.33,110.33,0,0,0,14.08,19.42,109.44,109.44,0,0,0,18.62,16.34c-5.64-5.67-11.39-11.68-17.19-18Q170.87,113.75,163.56,105Z"/><path class="cls-13" d="M237.81,140.32c-2.29-9.09-5.2-21.22-2.06-35.93l0-.15a19,19,0,0,0-6.95-19l-1.74-1.36a152.52,152.52,0,0,1-25.33-25.9C189.66,42.8,174.28,23.31,156.6,0a147,147,0,0,0,7.88,28.42A146.65,146.65,0,0,0,182.18,61,160.18,160.18,0,0,1,161.46,46,159,159,0,0,1,148,33a212.77,212.77,0,0,0,12.08,25.51A212.37,212.37,0,0,0,181,89.34a84.66,84.66,0,0,1-13.92-7.77,84.52,84.52,0,0,1-15.86-14.24A168.91,168.91,0,0,0,163,88a168.14,168.14,0,0,0,23.2,27.74,55.23,55.23,0,0,1-10.52-3.4A56.11,56.11,0,0,1,163.56,105q7.31,8.7,15.51,17.72c5.8,6.36,11.55,12.37,17.19,18a55.52,55.52,0,0,0,47.21,17h0l.31-.08A108.66,108.66,0,0,1,237.81,140.32Z"/><path class="cls-14" d="M221.85,156.22a56.35,56.35,0,0,1-25.59-15.42,40.08,40.08,0,0,1-8.58-2.75c-.74-.33-1.44-.67-2.11-1,4.12,3.54,8.29,7,12.48,10.32,10.46,8.31,13.23,9.7,15.76,10.66a42.52,42.52,0,0,0,16.4,2.45,44,44,0,0,0,8-1.11c1.72-.57,3.48-1.08,5.21-1.54A55.82,55.82,0,0,1,221.85,156.22Z"/><path class="cls-15" d="M303.08,196.92c-27.12-17.67-71.29-1.16-95.32,22.64C183,244.12,177,278.41,175.9,289.13q-.72,7-1.45,14,4.89-12.34,9.74-24.7l.45-1.15.09-.21c1.33-3.4,2.81-6.73,4.41-10a128,128,0,0,1,33.69-42.6,142.5,142.5,0,0,1,26-17s28.84-14.55,46.79-7.83a72,72,0,0,1,7.44,3.4,154.6,154.6,0,0,1,15.86,12A47.38,47.38,0,0,0,303.08,196.92Z"/><path class="cls-15" d="M152.08,312.85c-.82,1.22-1.36,1.95-1.45,2.08v0l7.76-9.87q-1.57,1.73-3.2,3.71C154.06,310.17,153,311.53,152.08,312.85Z"/><path class="cls-15" d="M145.84,325.47a53.76,53.76,0,0,0,5.91-6.07,54.4,54.4,0,0,0,8.32-13.84,124.14,124.14,0,0,1-7.83,12C150.09,320.43,147.94,323.07,145.84,325.47Z"/><path class="cls-15" d="M159.27,325.91a248.14,248.14,0,0,0,11.78-24.27c1.79-4.28,3.41-8.46,4.85-12.51Q171.54,299,167,309,163.16,317.5,159.27,325.91Z"/><path class="cls-15" d="M61.86,126A62.36,62.36,0,0,1,53,118.69c6.34,15.9,28.23,25.4,70.93,23.29a220.22,220.22,0,0,1-35.38-5.44C74.77,133.25,67.92,130.16,61.86,126Z"/><path class="cls-15" d="M93.91,151.47a113.72,113.72,0,0,1-15.76-8.21c6.71,15.08,26.22,18.84,63.83,17.5l1.46,0A119,119,0,0,1,93.91,151.47Z"/><path class="cls-15" d="M29.73,91.54A106.65,106.65,0,0,1,17.28,78.41,55.12,55.12,0,0,0,23,89.69c2,3,8.16,11.89,23.69,20.22,22.63,12.12,48.54,15.58,60.74,17.66a260,260,0,0,1-44-15.48C42.66,102.54,33.57,95,29.73,91.54Z"/><path class="cls-15" d="M8.53,40.56A86.42,86.42,0,0,1,.45,16.5q-6.3,50.86,75,83.79c5.59,2.44,10.48,4.2,14.21,5.43-16.48-7.35-38.7-19.28-58.77-37.48C18.83,57.33,12.78,48.88,8.53,40.56Z"/><path class="cls-15" d="M96.46,161.09c7.1,13.26,30,18.36,59.91,16.91a114.35,114.35,0,0,1-43-8.29A111.09,111.09,0,0,1,96.46,161.09Z"/><path class="cls-15" d="M114.51,178.16c5.6,9.4,21.7,13.62,38,17.14a214.22,214.22,0,0,1-23.85-9.73C123.56,183.15,118.86,180.66,114.51,178.16Z"/><path class="cls-15" d="M148,33a65.65,65.65,0,0,0,2.91,17.8c6.76,21.79,23.2,34,30.1,38.52a212.37,212.37,0,0,1-20.93-30.81A212.77,212.77,0,0,1,148,33Z"/><path class="cls-15" d="M163,88a168.91,168.91,0,0,1-11.76-20.65,66.27,66.27,0,0,0,5.34,17.31c8.39,17.9,22.78,27.26,29.62,31.08A168.14,168.14,0,0,1,163,88Z"/><path class="cls-15" d="M156.6,0a68.94,68.94,0,0,0,.17,12.79C159.37,37,174.4,53.61,182.18,61a146.65,146.65,0,0,1-17.7-32.6A147,147,0,0,1,156.6,0Z"/><path class="cls-15" d="M163.56,105a110.33,110.33,0,0,0,14.08,19.42,109.44,109.44,0,0,0,18.62,16.34c-5.64-5.67-11.39-11.68-17.19-18Q170.87,113.75,163.56,105Z"/><path class="cls-15" d="M221.85,156.22a56.35,56.35,0,0,1-25.59-15.42,40.08,40.08,0,0,1-8.58-2.75c-.74-.33-1.44-.67-2.11-1,4.12,3.54,8.29,7,12.48,10.32,10.46,8.31,13.23,9.7,15.76,10.66a42.52,42.52,0,0,0,16.4,2.45,44,44,0,0,0,8-1.11c1.72-.57,3.48-1.08,5.21-1.54A55.82,55.82,0,0,1,221.85,156.22Z"/><path class="cls-16" d="M39.37,300.22l2.82,6.27L25,314.21l4.75,10.58-5,2.23L17.2,310.17Z"/><path class="cls-16" d="M37.42,345.49a12.13,12.13,0,0,1,5-11.81,12.17,12.17,0,0,1,12.77-1.21,15.56,15.56,0,0,1,8.2,11.17,12.42,12.42,0,0,1-17.75,13,15.5,15.5,0,0,1-8.2-11.17Zm10,5.36a6.19,6.19,0,0,0,3.37.45,7.36,7.36,0,0,0,3.44-1.44A7.47,7.47,0,0,0,56.69,347a6.23,6.23,0,0,0,.57-3.35,6.43,6.43,0,0,0-1.27-3.2,6.51,6.51,0,0,0-2.67-2.18,6.22,6.22,0,0,0-3.37-.45,8,8,0,0,0-5.85,4.29,6.24,6.24,0,0,0-.58,3.35,6.83,6.83,0,0,0,3.95,5.38Z"/><path class="cls-16" d="M94.78,372.88,78.91,391.29l-4.29-3.7L75,370.77l-8.45,9.81-5.1-4.4,15.87-18.41,4.28,3.7-.33,16.82,8.46-9.81Z"/><path class="cls-16" d="M115.56,399l5.34,2.88-4.77,8.87a16,16,0,0,1-5.31-.26,19.08,19.08,0,0,1-5.15-1.87,14.33,14.33,0,0,1-5.28-4.68,12,12,0,0,1-2.09-6.23,13.16,13.16,0,0,1,6.2-11.5,12,12,0,0,1,6.38-1.66,14.85,14.85,0,0,1,6.91,1.89,15.4,15.4,0,0,1,4.83,3.9,11.76,11.76,0,0,1,2.41,5.05l-5.73,1.41a7.72,7.72,0,0,0-3.91-5.19,6.54,6.54,0,0,0-9.41,2.82A7.46,7.46,0,0,0,105,398a6.27,6.27,0,0,0,1,3.32,7.15,7.15,0,0,0,2.73,2.48,8.91,8.91,0,0,0,3.65,1.06Z"/><path class="cls-16" d="M143,403.52l-7.15-2.17,1.58-5.22,20.84,6.32-1.58,5.22-7.11-2.16-5.48,18.05-6.58-2Z"/><path class="cls-16" d="M183.51,425.79l-10.22-1-2.37,4.51-7-.7L177,405.46l6.74.67,8.3,25.26-7.12-.71Zm-1.5-5.25-2.34-8.05-3.88,7.43Z"/><path class="cls-16" d="M206.52,406.41l6.86-.52,1.84,24.24-6.86.52Z"/><path class="cls-16" d="M228.44,403.92l6.68-1.6,4.38,18.34,11.28-2.7,1.27,5.31-18,4.29Z"/><path class="cls-16" d="M277.31,386.68l5.9-3.52,9.66,16.19,10-5.94,2.8,4.68-15.87,9.47Z"/><path class="cls-16" d="M322.58,383.62A12.62,12.62,0,0,1,307.19,374a12.18,12.18,0,0,1,.51-6.59A15.51,15.51,0,0,1,317.9,358a12.43,12.43,0,0,1,14.89,16.22,14.64,14.64,0,0,1-4,5.89A14.49,14.49,0,0,1,322.58,383.62Zm4.23-10.57a6.22,6.22,0,0,0,.08-3.4,7.33,7.33,0,0,0-1.81-3.26,7.49,7.49,0,0,0-3.1-2.09,6.34,6.34,0,0,0-3.39-.21,6.87,6.87,0,0,0-4.91,4.51,6.23,6.23,0,0,0-.09,3.4,8.07,8.07,0,0,0,4.91,5.35,6.34,6.34,0,0,0,3.39.21,6.86,6.86,0,0,0,4.92-4.51Z"/><path class="cls-16" d="M349.26,335.85l3.46-5,8.28,5.73a15.58,15.58,0,0,1-.85,5.25,19,19,0,0,1-2.43,4.9,14.36,14.36,0,0,1-5.24,4.73,11.89,11.89,0,0,1-6.43,1.38,13.14,13.14,0,0,1-10.73-7.44,12,12,0,0,1-.94-6.52,14.82,14.82,0,0,1,2.65-6.66,15.41,15.41,0,0,1,4.42-4.37,11.77,11.77,0,0,1,5.28-1.83l.76,5.85a7.7,7.7,0,0,0-5.59,3.31,6.88,6.88,0,0,0-1.31,5.22,6.8,6.8,0,0,0,3.07,4.44,7.33,7.33,0,0,0,3.45,1.34,6.28,6.28,0,0,0,3.41-.6,7.15,7.15,0,0,0,2.76-2.43,8.85,8.85,0,0,0,1.46-3.51Z"/><path class="cls-16" d="M349.75,311.33l2.89-6.24,22.06,10.22-2.89,6.24Z"/><path class="cls-16" d="M382.23,294.82a14.09,14.09,0,0,1-3.1,3.82l-4.26-3.54a15,15,0,0,0,2.69-3.18,14.51,14.51,0,0,0,1.78-3.9q1.07-3.81-.84-4.35a1.66,1.66,0,0,0-1.79.67,22.19,22.19,0,0,0-2,3.21,34.11,34.11,0,0,1-2.46,4.07,7.69,7.69,0,0,1-2.94,2.45,5.9,5.9,0,0,1-4.24.19,7,7,0,0,1-3.53-2.26,8.08,8.08,0,0,1-1.74-4.26,14.84,14.84,0,0,1,.59-6,21.08,21.08,0,0,1,1.8-4.4,14.25,14.25,0,0,1,2.63-3.52l4.34,3.42a14.2,14.2,0,0,0-3.63,6,5.65,5.65,0,0,0-.22,3,1.82,1.82,0,0,0,1.27,1.33,1.55,1.55,0,0,0,1.7-.68,19.24,19.24,0,0,0,1.94-3.17,33.74,33.74,0,0,1,2.46-4.08,8,8,0,0,1,2.93-2.46,5.74,5.74,0,0,1,4.22-.21,6.87,6.87,0,0,1,3.49,2.24,8.44,8.44,0,0,1,1.74,4.28,14.89,14.89,0,0,1-.58,6A22.39,22.39,0,0,1,382.23,294.82Z"/><path class="cls-16" d="M371.52,255.17l-.65,7.44-5.43-.47,1.89-21.7,5.43.48-.65,7.4L390.9,250l-.6,6.85Z"/><path class="cls-16" d="M366.82,227.61l-.5-6.86L390.56,219l.5,6.85Z"/><path class="cls-16" d="M385.74,195.12a12,12,0,0,1-3.2,5.72A13.12,13.12,0,0,1,369.87,204a12,12,0,0,1-5.52-3.54,14.38,14.38,0,0,1-3.23-6.27,14.7,14.7,0,0,1-.31-6.11,11.72,11.72,0,0,1,2.23-5.14l4.9,3.29a7.22,7.22,0,0,0-1.38,6.25,7.1,7.1,0,0,0,1.7,3.21,6,6,0,0,0,2.95,1.73,8.15,8.15,0,0,0,7.05-1.76,6,6,0,0,0,1.79-2.91,7.09,7.09,0,0,0,0-3.63,7.2,7.2,0,0,0-4.15-4.87l2.78-5.21a11.59,11.59,0,0,1,4.38,3.49,14.69,14.69,0,0,1,2.6,5.55A14.25,14.25,0,0,1,385.74,195.12Z"/><path class="cls-16" d="M375.06,159.16a14,14,0,0,1,.24,4.91l-5.55.2a15.34,15.34,0,0,0-1.37-8.26q-1.74-3.56-3.51-2.69A1.65,1.65,0,0,0,364,155a21.63,21.63,0,0,0,.64,3.73,35.88,35.88,0,0,1,.88,4.67,7.75,7.75,0,0,1-.57,3.8,5.84,5.84,0,0,1-3,2.95,7,7,0,0,1-4.13.67,8.19,8.19,0,0,1-4.14-2,14.83,14.83,0,0,1-3.53-4.86,20.61,20.61,0,0,1-1.59-4.48,14.3,14.3,0,0,1-.38-4.38l5.51-.34a14.15,14.15,0,0,0,1.28,6.88,5.68,5.68,0,0,0,1.85,2.42,1.84,1.84,0,0,0,1.83.15,1.57,1.57,0,0,0,.83-1.64,20.72,20.72,0,0,0-.67-3.66,33.52,33.52,0,0,1-.88-4.69,7.93,7.93,0,0,1,.55-3.78,5.74,5.74,0,0,1,3-3,6.83,6.83,0,0,1,4.09-.65,8.36,8.36,0,0,1,4.14,2,14.64,14.64,0,0,1,3.54,4.84A22.1,22.1,0,0,1,375.06,159.16Z"/><path class="cls-16" d="M324.2,109.57a182.06,182.06,0,0,1,21.9,26.5l4-2.42a186.05,186.05,0,0,0-22.6-27.37,183,183,0,0,0-103.75-52.1l-.59,4.61A178.44,178.44,0,0,1,324.2,109.57Z"/><path class="cls-16" d="M17.32,236.69a178.61,178.61,0,0,1,27.73-96.05l-4-2.33a183.16,183.16,0,0,0-28.36,98.38,185.55,185.55,0,0,0,6.44,48.59L23.58,284A180.53,180.53,0,0,1,17.32,236.69Z"/><path class="cls-16" d="M97.18,81.61,100.47,85a177.4,177.4,0,0,1,47-21.2l-1.93-4.29A182.1,182.1,0,0,0,97.18,81.61Z"/></g></g></g></svg>